<svg width="20" height="16" viewBox="0 0 20 16" fill="none" xmlns="http://www.w3.org/2000/svg">
<path fill-rule="evenodd" clip-rule="evenodd" d="M0.0111111 1.11701C0.0111111 0.820758 0.128174 0.536643 0.336548 0.327164C0.544922 0.117684 0.827538 0 1.12222 0H18.8889C19.1836 0 19.4662 0.117684 19.6746 0.327164C19.8829 0.536643 20 0.820758 20 1.11701V13.766C20 14.3585 19.7659 14.9267 19.3491 15.3457C18.9324 15.7646 18.3671 16 17.7778 16H2.22222C1.63285 16 1.06762 15.7646 0.650874 15.3457C0.234126 14.9267 0 14.3585 0 13.766V1.47892C0 1.4253 0.00333332 1.37392 0.0111111 1.32254V1.11701ZM2.22222 3.60123V13.766H17.7778V3.60123L12.3567 9.0511C11.7316 9.67932 10.8839 10.0322 10 10.0322C9.11612 10.0322 8.26843 9.67932 7.64333 9.0511L2.22222 3.59899V3.60123ZM3.96889 2.19827H16.0311L10.7867 7.47054C10.6835 7.57439 10.5609 7.65678 10.426 7.713C10.2912 7.76921 10.1466 7.79814 10.0006 7.79814C9.85454 7.79814 9.70995 7.76921 9.57507 7.713C9.44018 7.65678 9.31764 7.57439 9.21445 7.47054L3.96889 2.19827Z" fill="#54616A"/>
</svg>
